<svg xmlns="http://www.w3.org/2000/svg" xmlns:xlink="http://www.w3.org/1999/xlink" version="1.1" id="Layer_1" x="0px" y="0px" width="440px" height="325.73px" viewBox="0 0 440 325.73" style="enable-background:new 0 0 440 325.73;" xml:space="preserve"> <style type="text/css"> .st0{fill:#FFFFFF;} </style> <path class="st0" d="M220,210.71c9.43-6.82,33.75-48.73,63.8-99.99s84.59-65.15,101.76-70.95c17.17-5.81,27.27-14.14,32.29-23.48 c1.99,11.62-15.77,24.32-36.08,48.23c-22.27,26.22-35.48,40.4-58.33,84.84c-14.9,29.04-47.22,70.2-68.18,78.78L220,309.44 c0,0-35.26-81.31-35.26-81.31c-20.96-8.59-53.28-49.74-68.18-78.78C93.71,104.91,80.5,90.73,58.23,64.51 C37.92,40.6,20.16,27.9,22.15,16.29c5.02,9.34,15.12,17.68,32.29,23.48s71.71,19.7,101.76,70.95S210.57,203.9,220,210.71z M218.49,266.13l1.62-4.58l0.81-2.29l1.62-4.58l11.93-33.7h-3.24l-10.31,29.12l-1.63,4.58l-0.8,2.29l-1.63,4.58l-0.8,2.29 l-1.63,4.58l-0.8,2.29l-1.63,4.58l-0.26,0.74h0.53h2.71l0.27-0.74l0.81-2.29l1.62-4.58L218.49,266.13z M223.36,266.13l1.62-4.58 l14.36-40.57h-3.24l-12.74,35.99l-1.63,4.58l-0.8,2.29l-1.63,4.58l-0.8,2.29l-1.63,4.58l-0.26,0.74h0.53h2.71l0.27-0.74l0.81-2.29 l1.62-4.58L223.36,266.13z M244.2,220.99h-3.24l-15.17,42.85l-1.63,4.58l-0.8,2.29l-1.63,4.58l-0.26,0.74H222h2.71l0.27-0.74 l0.81-2.29l1.62-4.58L244.2,220.99z M245.82,220.99l-17.6,49.72l-1.63,4.58l-0.26,0.74h0.53h2.71l0.27-0.74l19.22-54.3H245.82z M211.2,263.86l-15.18-42.87h-3.24l17.78,50.24v0.01l0.54,1.51l1.61-4.59L211.2,263.86z M212.15,252.79l-11.26-31.8h-3.24 l13.87,39.18l2.02,5.7l1.61-4.59v-0.01L212.15,252.79z M213.1,241.74l-7.35-20.75h-3.24l9.95,28.12l3.49,9.87l1.62-4.59v-0.01 L213.1,241.74z M214.04,230.68l-3.43-9.69h-3.24l6.04,17.06l4.97,14.04l1.62-4.59L214.04,230.68z"/> </svg>